# xmcd
#
# Track frame offsets:
# 150
# 17662
# 31022
# 48320
# 61955
# 75132
# 91479
# 105977
# 125320
# 139640
# 159047
# 176462
# 192634
# 207345
#
# Disc length: 3031 seconds
#
#
# Revision: 2
# Processed by: cddbd v1.5PL3 Copyright (c) Steve Scherf et al.
# Submitted via: FreeRIP 2.52 
#
DISCID=a10bd50e
DTITLE=Gian and Giovani - 100 Anos de música
DYEAR=2001
DGENRE=Country
TTITLE0=Escravo Do Amor
TTITLE1=Viola Caipira
TTITLE2=O Que É Que A Gente Não Faz Por Amor
TTITLE3=Samba E Cachaça
TTITLE4=Doidinho, Doidinho
TTITLE5=1, 2, 3
TTITLE6=Pra Te Ver Rebolar
TTITLE7=O Grande Amor Da Minha Vida (Convite De Casamento)
TTITLE8=Amor Demais
TTITLE9=Eu Busco Uma Estrela
TTITLE10=Medo
TTITLE11=Tô Pensando Nela
TTITLE12=Olha Amor (Ao Vivo)
TTITLE13=Nem Dormindo Consigo Te Esquecer (Ao Vivo)
EXTD=
EXTT0=
EXTT1=
EXTT2=
EXTT3=
EXTT4=
EXTT5=
EXTT6=
EXTT7=
EXTT8=
EXTT9=
EXTT10=
EXTT11=
EXTT12=
EXTT13=
PLAYORDER=
